<svg width="866" height="683" viewBox="0 0 866 683" fill="none" xmlns="http://www.w3.org/2000/svg">
<path d="M846.32 574.82H19.45V575.23H846.32V574.82Z" fill="#EBEBEB"/>
<path d="M763.46 601.43H708.69V601.84H763.46V601.43Z" fill="#EBEBEB"/>
<path d="M567.2 605.93H552.83V606.34H567.2V605.93Z" fill="#EBEBEB"/>
<path d="M707.04 586.08H675.3V586.49H707.04V586.08Z" fill="#EBEBEB"/>
<path d="M177.63 588.86H106.2V589.27H177.63V588.86Z" fill="#EBEBEB"/>
<path d="M202.83 588.86H192.36V589.27H202.83V588.86Z" fill="#EBEBEB"/>
<path d="M391.78 595.84H236.86V596.25H391.78V595.84Z" fill="#EBEBEB"/>
<path d="M411.38 501.07H92.0599C89.558 501.065 87.1605 500.066 85.3942 498.295C83.6279 496.523 82.6372 494.122 82.6399 491.62V42.75C82.661 40.2637 83.6621 37.8861 85.4258 36.1336C87.1896 34.3811 89.5735 33.3952 92.0599 33.39H411.38C413.884 33.39 416.287 34.3843 418.059 36.1543C419.83 37.9244 420.827 40.3255 420.83 42.83V491.62C420.83 494.126 419.834 496.53 418.062 498.302C416.29 500.074 413.886 501.07 411.38 501.07ZM92.0599 33.72C89.6729 33.72 87.3838 34.6682 85.6959 36.3561C84.0081 38.0439 83.0599 40.3331 83.0599 42.72V491.62C83.0599 494.007 84.0081 496.296 85.6959 497.984C87.3838 499.672 89.6729 500.62 92.0599 500.62H411.38C413.767 500.62 416.056 499.672 417.744 497.984C419.432 496.296 420.38 494.007 420.38 491.62V42.75C420.38 40.3631 419.432 38.0739 417.744 36.3861C416.056 34.6982 413.767 33.75 411.38 33.75L92.0599 33.72Z" fill="#EBEBEB"/>
<path d="M769.1 501.07H449.77C447.265 501.065 444.865 500.067 443.094 498.296C441.323 496.525 440.325 494.125 440.32 491.62V42.75C440.349 40.261 441.357 37.8834 443.125 36.1317C444.894 34.38 447.281 33.3951 449.77 33.39H769.1C771.585 33.3978 773.966 34.3849 775.728 36.1371C777.489 37.8894 778.489 40.2654 778.51 42.75V491.62C778.51 494.119 777.52 496.517 775.756 498.288C773.993 500.059 771.599 501.059 769.1 501.07ZM449.77 33.72C447.383 33.72 445.094 34.6682 443.406 36.3561C441.718 38.0439 440.77 40.3331 440.77 42.72V491.62C440.77 494.007 441.718 496.296 443.406 497.984C445.094 499.672 447.383 500.62 449.77 500.62H769.1C771.487 500.62 773.776 499.672 775.464 497.984C777.152 496.296 778.1 494.007 778.1 491.62V42.75C778.1 40.3631 777.152 38.0739 775.464 36.3861C773.776 34.6982 771.487 33.75 769.1 33.75L449.77 33.72Z" fill="#EBEBEB"/>
<path d="M380.71 415.19H171.64V429.94H380.71V415.19Z" fill="#EBEBEB"/>
<path d="M380.71 415.19H289.8V429.94H380.71V415.19Z" fill="#E0E0E0"/>
<path d="M202.53 429.94H171.64V574.82H202.53V429.94Z" fill="#EBEBEB"/>
<path d="M202.53 444.89L171.64 434.37V429.94H202.53V444.89Z" fill="#E0E0E0"/>
<path d="M380.7 429.94H349.81V574.82H380.7V429.94Z" fill="#E0E0E0"/>
<path d="M320.69 429.94H289.8V574.82H320.69V429.94Z" fill="#EBEBEB"/>
<path d="M320.68 444.89L289.8 434.37V429.94H320.68V444.89Z" fill="#E0E0E0"/>
<path d="M262.54 429.94H231.65V574.82H262.54V429.94Z" fill="#E0E0E0"/>
<path d="M400.35 86.59H136.86V310.95H400.35V86.59Z" fill="#EBEBEB"/>
<path d="M403.29 86.5701H400.35V310.93H403.29V86.5701Z" fill="#E0E0E0"/>
<path d="M390.45 96.49H146.8V301.01H390.45V96.49Z" fill="#F5F5F5"/>
<path d="M265.67 270C280.56 220.39 284.67 147.21 316.34 157.3C348.01 167.39 306.54 275.59 306.54 275.59L265.67 270Z" fill="white"/>
<path d="M291.24 272.44C276.09 200.53 279.91 105.08 232.85 107.26C185.79 109.44 232.85 275.56 232.85 275.56L291.24 272.44Z" fill="white"/>
<path d="M324.5 264.37H221.5C219.396 264.297 217.348 265.055 215.8 266.482C214.252 267.908 213.329 269.887 213.23 271.99C211.13 319.45 218.9 367.91 233.38 415.19H312.28C326.75 367.82 334.52 319.45 332.42 271.99C332.337 269.944 331.467 268.008 329.991 266.588C328.516 265.168 326.548 264.373 324.5 264.37Z" fill="#EBEBEB"/>
<path d="M558.89 111.61H553.09V574.82H558.89V111.61Z" fill="#E0E0E0"/>
<path d="M695.31 111.61H689.51V574.82H695.31V111.61Z" fill="#E0E0E0"/>
<path d="M517.73 111.61H511.93V574.82H517.73V111.61Z" fill="#EBEBEB"/>
<path d="M654.15 111.61H648.35V574.82H654.15V111.61Z" fill="#EBEBEB"/>
<path d="M695.31 108.43H511.93V114.76H695.31V108.43Z" fill="#EBEBEB"/>
<path d="M695.31 221.86H511.93V228.19H695.31V221.86Z" fill="#EBEBEB"/>
<path d="M695.31 335.29H511.93V341.62H695.31V335.29Z" fill="#EBEBEB"/>
<path d="M695.31 448.72H511.93V455.05H695.31V448.72Z" fill="#EBEBEB"/>
<path d="M695.31 562.15H511.93V568.48H695.31V562.15Z" fill="#EBEBEB"/>
<path d="M695.31 108.43H654.15V114.76H695.31V108.43Z" fill="#E0E0E0"/>
<path d="M695.31 221.86H654.15V228.19H695.31V221.86Z" fill="#E0E0E0"/>
<path d="M695.31 335.29H654.15V341.62H695.31V335.29Z" fill="#E0E0E0"/>
<path d="M695.31 448.72H654.15V455.05H695.31V448.72Z" fill="#E0E0E0"/>
<path d="M695.31 562.15H654.15V568.48H695.31V562.15Z" fill="#E0E0E0"/>
<path d="M585.9 147V138.07H563.9V147C563.9 149.799 562.789 152.483 560.811 154.464C558.832 156.444 556.149 157.557 553.35 157.56C550.55 157.56 547.865 158.671 545.883 160.649C543.901 162.627 542.785 165.31 542.78 168.11V221.89H607V168.13C606.995 165.33 605.879 162.647 603.897 160.669C601.915 158.691 599.23 157.58 596.43 157.58C593.631 157.572 590.95 156.453 588.975 154.469C587.001 152.486 585.895 149.799 585.9 147Z" fill="#F0F0F0"/>
<path d="M631.53 298.42H534.92V335.31H631.53V298.42Z" fill="#F0F0F0"/>
<path d="M648.35 298.4H631.53V335.29H648.35V298.4Z" fill="#E6E6E6"/>
<path d="M648.35 314.82H631.53V318.89H648.35V314.82Z" fill="#EBEBEB"/>
<path d="M631.53 314.82H534.92V318.89H631.53V314.82Z" fill="#F5F5F5"/>
<path d="M605.65 496.93H530.19V562.15H605.65V496.93Z" fill="#F0F0F0"/>
<path d="M618.78 496.95H605.65V562.17H618.78V496.95Z" fill="#E6E6E6"/>
<path d="M618.78 525.95H605.65V533.14H618.78V525.95Z" fill="#EBEBEB"/>
<path d="M605.65 525.95H530.19V533.14H605.65V525.95Z" fill="#F5F5F5"/>
<path d="M618.78 518.35H605.65V520.91H618.78V518.35Z" fill="#EBEBEB"/>
<path d="M605.65 518.35H530.19V520.91H605.65V518.35Z" fill="#F5F5F5"/>
<path d="M548.58 382.41H534.92V448.73H548.58V382.41Z" fill="#F0F0F0"/>
<path d="M548.58 406.04H534.92V425.09H548.58V406.04Z" fill="#FAFAFA"/>
<path d="M595.05 382.43H548.58V448.75H595.05V382.43Z" fill="#E6E6E6"/>
<path d="M569.68 373.84H554.25V448.72H569.68V373.84Z" fill="#EBEBEB"/>
<path d="M569.68 397.64H554.25V409.17H569.68V397.64Z" fill="#FAFAFA"/>
<path d="M569.68 416.89H554.25V428.42H569.68V416.89Z" fill="#FAFAFA"/>
<path d="M622.17 373.84H569.7V448.72H622.17V373.84Z" fill="#E0E0E0"/>
<path d="M586.86 382.41H578.54V448.73H586.86V382.41Z" fill="#F0F0F0"/>
<path d="M585.43 390.81H579.97V440.32H585.43V390.81Z" fill="#FAFAFA"/>
<path d="M615.11 382.43H586.85V448.75H615.11V382.43Z" fill="#E6E6E6"/>
<path d="M609.07 378.92H599.68V448.72H609.07V378.92Z" fill="#EBEBEB"/>
<path d="M609.07 401.1H599.68V411.85H609.07V401.1Z" fill="#FAFAFA"/>
<path d="M609.07 419.06H599.68V429.81H609.07V419.06Z" fill="#FAFAFA"/>
<path d="M640.99 378.92H609.07V448.72H640.99V378.92Z" fill="#E0E0E0"/>
<path d="M590.25 298.41C601.61 298.41 610.82 289.201 610.82 277.84C610.82 266.48 601.61 257.27 590.25 257.27C578.889 257.27 569.68 266.48 569.68 277.84C569.68 289.201 578.889 298.41 590.25 298.41Z" fill="#F5F5F5"/>
<path d="M613.02 298.37C620.896 298.37 627.28 291.986 627.28 284.11C627.28 276.234 620.896 269.85 613.02 269.85C605.144 269.85 598.76 276.234 598.76 284.11C598.76 291.986 605.144 298.37 613.02 298.37Z" fill="#EBEBEB"/>
<path d="M432.88 649.5C609.965 649.5 753.52 641.119 753.52 630.78C753.52 620.441 609.965 612.06 432.88 612.06C255.795 612.06 112.24 620.441 112.24 630.78C112.24 641.119 255.795 649.5 432.88 649.5Z" fill="#F5F5F5"/>
<path d="M228 502.54H440.41V612.2C440.41 615.038 439.283 617.759 437.276 619.766C435.269 621.773 432.548 622.9 429.71 622.9H238.71C237.304 622.901 235.912 622.626 234.612 622.088C233.313 621.551 232.132 620.763 231.137 619.77C230.143 618.776 229.354 617.596 228.815 616.297C228.277 614.998 228 613.606 228 612.2V502.54Z" fill="#D1D3D4"/>
<path d="M228 502.54H378.31L359.82 478.87C357.82 476.28 352.76 474.18 348.57 474.18H213.4C209.23 474.18 207.48 476.28 209.51 478.87L228 502.54Z" fill="#D1D3D4"/>
<path opacity="0.2" d="M228 502.54H378.31L359.82 478.87C357.82 476.28 352.76 474.18 348.57 474.18H213.4C209.23 474.18 207.48 476.28 209.51 478.87L228 502.54Z" fill="black"/>
<path d="M440.41 502.54H290.11L308.6 487.11C310.6 485.45 315.66 484.05 319.85 484.05H455C459.18 484.05 460.92 485.42 458.89 487.11L440.41 502.54Z" fill="#D1D3D4"/>
<path opacity="0.2" d="M290.11 502H440.41V611.63C440.41 613.035 440.133 614.427 439.596 615.725C439.058 617.023 438.27 618.202 437.276 619.196C436.282 620.19 435.103 620.978 433.805 621.516C432.507 622.053 431.115 622.33 429.71 622.33H300.81C299.405 622.33 298.013 622.053 296.715 621.516C295.417 620.978 294.238 620.19 293.244 619.196C292.25 618.202 291.462 617.023 290.924 615.725C290.387 614.427 290.11 613.035 290.11 611.63V502Z" fill="white"/>
<path opacity="0.5" d="M246.65 502.54V577.75L251.85 573.65L255.5 577.75L258.68 573.18L261.94 577.75L266.47 574.33L271.46 577.75V502.54H246.65Z" fill="white"/>
<path d="M374.12 397L462.24 286.88L344.92 188.38L267.19 277.6L255.62 299.9C254.512 301.122 253.934 302.734 254.013 304.382C254.091 306.03 254.82 307.579 256.04 308.69L256.39 308.98L362.23 397.86C363.956 399.241 366.139 399.92 368.344 399.761C370.548 399.601 372.611 398.615 374.12 397Z" fill="#D1D3D4"/>
<path opacity="0.5" d="M313.7 315.81L301.01 336.24L306.12 337.35L307.86 342.07L311.25 342.27L312.82 346.32L316.97 347.53L320.16 352.61L332.85 332.19L313.7 315.81Z" fill="white"/>
<path opacity="0.1" d="M458.4 283.52L379.38 371.66L267.14 277.43L344.92 188.25L458.4 283.52Z" fill="black"/>
<path d="M458.4 283.68L379.38 371.82L412.09 374.24L489.89 285.05L458.4 283.68Z" fill="#D1D3D4"/>
<path opacity="0.3" d="M458.4 283.68L379.38 371.82L412.09 374.24L489.89 285.05L458.4 283.68Z" fill="black"/>
<path d="M313.45 187.02L234.42 275.18L267.14 277.6L344.92 188.41L313.45 187.02Z" fill="#D1D3D4"/>
<path opacity="0.4" d="M313.45 187.02L234.42 275.18L267.14 277.6L344.92 188.41L313.45 187.02Z" fill="black"/>
<path opacity="0.1" d="M434.02 310.73L458.35 283.59L344.87 188.32L330.35 223.31L434.02 310.73Z" fill="black"/>
<path opacity="0.2" d="M267.14 277.6L344.92 188.41L330.4 223.4L275.63 284.72L267.14 277.6Z" fill="black"/>
<path d="M522.58 124.81C523.31 133.57 525.47 149.61 530.65 153.32C530.65 153.32 529.43 163.85 510.81 166.55C490.4 169.55 499.56 157.85 499.56 157.85C510.29 153.55 508.79 145.33 505.71 137.85L513.58 128.85C516.61 125.48 522.18 120.32 522.58 124.81Z" fill="#F9B499"/>
<path d="M537.32 157.6C538.97 156.09 535.66 150.08 533.63 149.23C528.3 147 506.52 149.23 498.34 156.23C497.657 157.392 497.245 158.693 497.132 160.036C497.02 161.379 497.21 162.73 497.69 163.99L537.32 157.6Z" fill="#FFD900"/>
<path opacity="0.2" d="M537.32 157.6C538.97 156.09 535.66 150.08 533.63 149.23C528.3 147 506.52 149.23 498.34 156.23C497.657 157.392 497.245 158.693 497.132 160.036C497.02 161.379 497.21 162.73 497.69 163.99L537.32 157.6Z" fill="black"/>
<path d="M529.1 616.7H515.29L513.91 584.75H527.72L529.1 616.7Z" fill="#F9B499"/>
<path d="M626.09 594.88L613.37 599.26L600.17 569.15L612.89 564.77L626.09 594.88Z" fill="#F9B499"/>
<path d="M610.34 596.11L625.23 591.56C625.492 591.479 625.774 591.491 626.029 591.593C626.284 591.695 626.496 591.881 626.63 592.12L632.84 603C632.975 603.233 633.062 603.49 633.095 603.757C633.128 604.024 633.108 604.294 633.034 604.553C632.96 604.812 632.835 605.053 632.666 605.262C632.497 605.471 632.287 605.644 632.05 605.77C631.92 605.85 631.778 605.911 631.63 605.95C626.42 607.45 623.82 607.95 617.31 609.95C613.31 611.17 603.17 615.01 597.46 616.15C591.75 617.29 589.92 611.83 592.14 610.86C602.06 606.47 606.14 601.5 608.49 597.63C608.901 596.915 609.559 596.374 610.34 596.11Z" fill="#FFD900"/>
<path d="M515.39 615.09H530.45C530.723 615.095 530.986 615.19 531.199 615.36C531.413 615.53 531.564 615.765 531.63 616.03L534.36 628.3C534.419 628.557 534.427 628.823 534.383 629.082C534.339 629.342 534.244 629.591 534.104 629.814C533.963 630.037 533.78 630.23 533.565 630.382C533.35 630.534 533.107 630.642 532.85 630.7C532.691 630.719 532.529 630.719 532.37 630.7C526.93 630.62 519.14 630.29 512.24 630.29C504.24 630.29 500.9 630.73 491.52 630.73C485.87 630.73 484.3 625.01 486.66 624.48C497.46 622.12 502.74 621.87 512.06 616.12C513.055 615.479 514.207 615.123 515.39 615.09Z" fill="#FFD900"/>
<path d="M555.49 162.11C559.49 165.8 562.98 169.49 566.59 173.34C570.2 177.19 573.53 181.18 576.77 185.43C580.158 189.748 583.232 194.303 585.97 199.06C587.464 201.682 588.758 204.413 589.84 207.23C590.12 208.01 590.4 208.75 590.63 209.59C590.901 210.444 591.128 211.312 591.31 212.19L591.59 213.56L591.79 215.08C591.98 216.474 591.98 217.886 591.79 219.28C591.412 221.913 590.441 224.427 588.95 226.63C587.858 228.236 586.579 229.706 585.14 231.01C582.828 233.107 580.3 234.954 577.6 236.52C572.841 239.24 567.864 241.558 562.72 243.45C552.956 247.072 542.894 249.836 532.65 251.71L529.76 241.79C538.76 237.91 547.83 233.71 556.22 229.22C560.308 227.086 564.243 224.674 568 222C569.559 220.891 570.994 219.617 572.28 218.2C572.681 217.782 573.018 217.307 573.28 216.79C573.42 216.51 573.28 216.54 573.12 217.14C573 218.25 573.02 217.39 572.76 216.79C572.67 216.51 572.52 216.13 572.38 215.79C572.24 215.45 572.04 215.01 571.86 214.61C570.964 212.806 569.962 211.056 568.86 209.37C566.305 205.579 563.544 201.93 560.59 198.44C557.59 194.83 554.34 191.24 551.05 187.72C547.76 184.2 544.3 180.64 541.13 177.37L555.49 162.11Z" fill="#F9B499"/>
<path d="M533.55 240.22L520.55 244.16L528.92 257.92C528.92 257.92 536.61 254.74 538.31 248.21L533.55 240.22Z" fill="#FFC3BD"/>
<path d="M515.27 249.03L520.4 260.38L528.82 257.93L520.45 244.16L515.27 249.03Z" fill="#FFC3BD"/>
<path d="M525 165.85C523.76 179.08 551.74 199.56 551.74 199.56L578.68 181.12C574.005 172.479 567.165 165.201 558.83 160C543.38 150.14 526.55 149.41 525 165.85Z" fill="#FFD900"/>
<path d="M479.19 164.79C479.19 164.79 467.1 183.35 495.81 282.87L568.81 272.09C567.81 262 555.58 217.99 555.17 169.89C555.136 165.329 553.292 160.968 550.045 157.766C546.797 154.563 542.411 152.781 537.85 152.81C537.59 152.81 537.33 152.81 537.08 152.81C534.96 152.92 532.78 153.07 530.61 153.29C520.197 154.221 509.847 155.75 499.61 157.87C492.635 159.646 485.808 161.959 479.19 164.79Z" fill="#FFD900"/>
<path opacity="0.2" d="M477.4 196.78L477.65 196.5L494.81 198C497.43 209.08 487.87 224.19 482.81 231.2C480.393 219.832 478.587 208.342 477.4 196.78Z" fill="black"/>
<path d="M521.7 279.05C521.7 279.05 533.55 379.85 542.14 419.34C551.55 462.6 598 580.54 598 580.54L621.16 572.54C621.16 572.54 591.39 483.73 583.49 423.26C577.42 376.82 568.77 272.09 568.77 272.09L521.7 279.05Z" fill="#751515"/>
<path d="M592.05 573.14C591.94 573.14 596.8 583.06 596.8 583.06L623.8 574.28L620.62 566.21L592.05 573.14Z" fill="#751515"/>
<path opacity="0.3" d="M528.24 330.76C531.94 358.76 536.69 391.95 540.85 413.14C547 380.67 548.43 339.68 528.24 330.76Z" fill="black"/>
<path d="M495.81 282.87C495.81 282.87 485.98 377.56 487.54 419.64C489.09 463.39 509.54 598.04 509.54 598.04H532.9C532.9 598.04 528.6 465.94 529.59 422.98C530.73 376.13 548.3 275.11 548.3 275.11L495.81 282.87Z" fill="#751515"/>
<path d="M505 588.73C504.9 588.73 506.32 598.42 506.32 598.42H534.75L535.52 589.77L505 588.73Z" fill="#751515"/>
<path d="M491.28 188.05C488.7 192.15 486.08 195.83 483.37 199.62C480.66 203.41 477.81 207.06 474.92 210.7C469.02 218.079 462.629 225.052 455.79 231.57C453.93 233.23 452.23 234.88 450.23 236.38L448.77 237.56L448.05 238.14C447.78 238.35 447.67 238.47 447.12 238.86C445.482 240.03 443.684 240.957 441.78 241.61C438.83 242.617 435.746 243.173 432.63 243.26C429.999 243.352 427.364 243.238 424.75 242.92C415.186 241.662 405.855 239.021 397.05 235.08L399.91 225.16C408.371 226.161 416.892 226.569 425.41 226.38C427.293 226.282 429.17 226.078 431.03 225.77C432.421 225.559 433.77 225.134 435.03 224.51C435.43 224.3 435.65 224.08 435.6 224.03C435.55 223.98 435.81 223.82 435.96 223.67L436.52 223.15L437.63 222.15C439.12 220.83 440.53 219.23 441.98 217.77C444.84 214.69 447.69 211.54 450.38 208.18C453.07 204.82 455.81 201.45 458.45 197.97C461.09 194.49 463.66 190.97 466.24 187.46C468.82 183.95 471.33 180.23 473.72 176.81L491.28 188.05Z" fill="#F9B499"/>
<path d="M500.88 183.66C506.44 201.85 474.18 222.01 474.18 222.01L453.18 195.31C457.91 186.495 463.755 178.324 470.57 171C484.84 155.48 496.65 169.82 500.88 183.66Z" fill="#FFD900"/>
<path d="M404.77 225.77L387.77 222.66L389.56 237.34C389.56 237.34 398.39 242.34 404.79 234.55L404.77 225.77Z" fill="#F9B499"/>
<path d="M381.24 225.97L384.91 236.57L389.54 237.34L387.75 222.66L381.24 225.97Z" fill="#F9B499"/>
<path d="M508 146.33C507.984 145.552 507.887 144.778 507.71 144.02C507.71 144.02 514.85 143.24 518.24 139.36C518.19 139.36 517.18 144.34 508 146.33Z" fill="#F7A48B"/>
<path d="M520.78 105C523.78 118.34 526.27 126 521.62 134.76C514.62 147.81 496.68 146.56 489.72 134.38C483.45 123.38 479.52 103.44 490.83 94.45C493.309 92.4602 496.255 91.1357 499.388 90.6015C502.522 90.0674 505.74 90.3414 508.738 91.3975C511.737 92.4537 514.416 94.2571 516.523 96.6373C518.63 99.0175 520.095 101.896 520.78 105Z" fill="#F9B499"/>
<path d="M494 118.11L488.92 121.22L489.4 103.85C486.128 103.99 482.901 103.056 480.21 101.19C482.04 99.44 510.62 89.43 519.53 91.19C520.46 90.81 521.59 89.09 521.59 89.09C521.59 89.09 521.93 91.26 520.43 92.09C521.52 91.88 524.25 92.41 525.01 94.01C523.757 93.6667 522.425 93.744 521.22 94.23C521.22 94.23 531.14 95.73 527.62 109.49C523.62 124.65 524.98 133.37 524.98 133.37C524.98 133.37 517.6 139.07 511.18 138.02C504.31 130.45 494.42 121.38 494 118.11Z" fill="#751515"/>
<path d="M484.25 99.8201C476.19 99.8201 473.3 95.8801 471.25 92.5701C477.04 91.9601 489.1 88.2401 498.04 87.5701C506.98 86.9001 516.8 88.5701 513.84 92.5701C510.88 96.5701 484.25 99.8201 484.25 99.8201Z" fill="#751515"/>
<path d="M486 96.23C479.38 95.3 472.93 89.07 477.89 83.1C479.73 87.48 492.12 86.97 500.89 85.1C512.47 82.69 520.49 86.59 516.39 94.48C514.18 98.83 486 96.23 486 96.23Z" fill="#751515"/>
<path d="M501.12 114.16C502.06 117.425 501.909 120.908 500.69 124.08C499.03 128.23 495.36 127.39 493.44 123.8C491.79 120.49 490.53 114.49 493.34 111.49C496.15 108.49 499.92 110.24 501.12 114.16Z" fill="#F9B499"/>
</svg>
