<svg width="512" height="512" viewBox="0 0 512 512" fill="none" xmlns="http://www.w3.org/2000/svg">
<g clip-path="url(#clip0_26_44)">
<path d="M240.1 4.2C249.9 -1.4 262 -1.4 271.9 4.2L443.7 102.3L448 104V104.9L495.9 132.3C508.5 139.5 514.7 154.3 511 168.3C507.3 182.3 494.6 192.1 480.1 192.1H32C17.5 192.1 4.79999 182.3 1.09999 168.3C-2.60001 154.3 3.59999 139.5 16.2 132.3L64 104.9V104L68.4 102.4L240.1 4.2ZM64 224H128V416H168V224H232V416H280V224H344V416H384V224H448V420.3C448.6 420.6 449.2 421 449.8 421.4L497.8 453.4C509.5 461.2 514.8 475.8 510.7 489.3C506.6 502.8 494.1 512 480 512H32C17.9 512 5.49999 502.8 1.39999 489.3C-2.70001 475.8 2.49999 461.2 14.3 453.4L62.3 421.4C62.9 421 63.5 420.7 64.1 420.3V224H64Z" fill="white"/>
</g>
<defs>
<clipPath id="clip0_26_44">
<rect width="512" height="512" fill="white"/>
</clipPath>
</defs>
</svg>
